<mxfile host="app.diagrams.net" modified="2023-06-03T13:19:54.022Z" agent="Mozilla/5.0 (Macintosh; Intel Mac OS X 10_15_7) AppleWebKit/537.36 (KHTML, like Gecko) Chrome/114.0.0.0 Safari/537.36" version="21.3.2" etag="KPP7jvVDSVDYXwkEq4Fu" type="github">
  <diagram name="Page-1" id="0J2eejaLnhA7fd5YdMPj">
    <mxGraphModel>
      <root>
        <mxCell id="0" />
        <mxCell id="1" parent="0" />
      </root>
    </mxGraphModel>
  </diagram>
</mxfile>
